<svg width="1230" height="1280" viewBox="0 0 1230 1080" fill="none" xmlns="http://www.w3.org/2000/svg">
<g filter="url(#filter0_d_47_9)">
<path d="M695.609 1177.79C921.193 952.203 921.193 586.459 695.609 360.875C470.024 135.291 104.28 135.291 -121.304 360.875C-346.888 586.459 -346.888 952.203 -121.304 1177.79C104.28 1403.37 470.024 1403.37 695.609 1177.79Z" fill="#263238"/>
<path d="M287.361 1349.08C-32.3254 1349.08 -292.383 1088.98 -292.383 769.34C-292.383 449.696 -32.5353 189.555 287.361 189.555C607.257 189.555 866.853 449.654 866.853 769.34C866.853 1089.03 606.837 1349.08 287.361 1349.08ZM287.361 193.754C-30.0158 193.754 -288.184 451.964 -288.184 769.34C-288.184 1086.72 -30.2258 1344.88 287.361 1344.88C604.948 1344.88 862.653 1086.67 862.653 769.34C862.653 452.006 604.486 193.754 287.361 193.754V193.754Z" fill="#263238"/>
<path d="M695.626 1160.54C921.21 934.959 921.21 569.215 695.626 343.631C470.042 118.047 104.298 118.047 -121.286 343.631C-346.87 569.215 -346.87 934.959 -121.286 1160.54C104.298 1386.13 470.042 1386.13 695.626 1160.54Z" fill="white"/>
<path d="M287.361 1331.82C-32.3254 1331.82 -292.383 1071.77 -292.383 752.081C-292.383 432.394 -32.5353 172.337 287.361 172.337C607.257 172.337 866.853 432.394 866.853 752.081C866.853 1071.77 606.837 1331.82 287.361 1331.82ZM287.361 176.536C-30.0158 176.536 -288.184 434.704 -288.184 752.081C-288.184 1069.46 -30.2258 1327.63 287.361 1327.63C604.948 1327.63 862.653 1069.42 862.653 752.081C862.653 434.746 604.486 176.536 287.361 176.536Z" fill="#263238"/>
<path d="M584.913 1067.09C749.362 902.643 749.362 636.019 584.913 471.57C420.465 307.122 153.84 307.122 -10.6083 471.57C-175.057 636.019 -175.057 902.643 -10.6083 1067.09C153.84 1231.54 420.465 1231.54 584.913 1067.09Z" fill="white"/>
<path d="M287.359 1192.49C203.646 1192.54 121.799 1167.76 52.1706 1121.29C-17.4578 1074.82 -71.7391 1008.74 -103.807 931.411C-135.876 854.084 -144.29 768.983 -127.986 686.873C-111.682 604.763 -71.3917 529.333 -12.2124 470.125C46.9669 410.916 122.377 370.589 204.479 354.244C286.581 337.899 371.686 346.271 449.029 378.301C526.372 410.331 592.478 464.579 638.986 534.184C685.493 603.79 710.313 685.625 710.304 769.338C710.171 881.488 665.575 989.01 586.292 1068.33C507.009 1147.65 399.51 1192.3 287.359 1192.49V1192.49ZM287.359 350.34C204.488 350.332 123.475 374.898 54.5652 420.933C-14.3442 466.968 -68.0547 532.404 -99.7741 608.965C-131.494 685.526 -139.797 769.774 -123.635 851.054C-107.472 932.335 -67.5699 1007 -8.97371 1065.6C49.6225 1124.2 124.281 1164.11 205.559 1180.28C286.838 1196.45 371.087 1188.16 447.651 1156.45C524.215 1124.73 589.656 1071.03 635.698 1002.12C681.74 933.22 706.315 852.209 706.315 769.338C706.193 658.257 662.015 551.761 583.473 473.211C504.932 394.662 398.44 350.473 287.359 350.34V350.34Z" fill="#263238"/>
<path d="M454.909 422.696C330.025 379.486 157.185 427.693 89.9974 465.948C89.9974 465.948 -97.3716 562.026 -116.562 749.353C-135.752 936.68 3.36753 1114.43 257.966 1162.56C512.564 1210.68 685.488 960.994 685.488 783.073C685.488 605.152 579.794 465.948 454.909 422.696ZM312.808 861.64C249.064 867.687 203.628 828.046 215.638 773.457C219.296 758.342 226.984 744.503 237.884 733.411C248.783 722.319 262.486 714.39 277.534 710.468C309.322 702.07 344.722 711.854 361.519 748.975C376.594 782.695 376.594 855.551 312.808 861.64Z" fill="black"/>
<path d="M449.871 407.662C324.987 364.41 152.063 412.449 84.7913 450.872C84.7913 450.872 -102.536 546.95 -121.768 734.319C-141 921.688 -1.67047 1099.57 252.928 1147.44C507.526 1195.31 680.45 945.876 680.45 767.955C680.45 590.034 574.798 450.872 449.871 407.662ZM307.812 846.564C244.026 852.653 198.632 813.18 210.642 758.381C217.739 726.425 243.732 703.413 272.496 695.602C304.326 686.994 339.684 697.03 356.481 734.109C371.556 767.829 371.556 840.517 307.812 846.564Z" fill="white"/>
<path d="M316.505 1155.62C295.043 1155.57 273.633 1153.52 252.551 1149.49C130.144 1126.4 29.4466 1072.82 -38.6647 994.5C-103.207 920.3 -133.483 827.833 -123.867 734.149C-104.76 547.83 81.8948 450.03 83.8265 449.064C148.494 412.111 322.594 361.385 450.586 405.728C587.186 452.885 682.551 601.916 682.551 767.827C682.551 876.04 620.948 999.833 529.237 1075.84C482.836 1114.43 411.071 1155.62 316.505 1155.62ZM336.703 392.543C235.25 392.543 132.243 426.136 85.8421 452.718C83.9104 453.725 -100.813 550.517 -119.668 734.527C-139.824 931.176 13.5316 1100.11 253.307 1145.38C378.317 1168.94 470.91 1118.88 526.55 1072.73C617.379 997.482 678.351 874.991 678.351 767.953C678.351 603.679 584.121 456.329 449.2 409.634C412.902 397.766 374.889 391.991 336.703 392.543V392.543ZM294.921 849.291C265.191 849.291 239.617 839.255 223.534 820.905C216.143 812.393 210.932 802.213 208.35 791.24C205.768 780.267 205.892 768.831 208.711 757.916C212.488 742.47 220.371 728.332 231.526 717C242.681 705.668 256.693 697.563 272.077 693.542C309.03 683.548 342.918 699.127 358.413 733.183C368.617 755.649 371.431 793.4 356.524 819.141C346.445 836.526 330.194 846.394 308.107 848.536V846.436V848.536C303.571 849.081 299.204 849.291 294.921 849.291ZM293.955 694.97C286.863 694.974 279.802 695.92 272.959 697.784C258.324 701.603 244.991 709.304 234.37 720.073C223.749 730.842 216.233 744.279 212.616 758.966C209.964 769.214 209.84 779.951 212.254 790.257C214.667 800.563 219.547 810.129 226.474 818.133C244.111 838.121 273.673 847.528 307.519 844.504C328.137 842.531 343.338 833.334 352.66 817.209C366.896 792.686 364.166 756.615 354.382 735.115C340.986 705.426 316.757 694.97 293.955 694.97V694.97Z" fill="black"/>
<path d="M663.064 761.572C632.704 706.982 626.615 688.673 626.615 646.177C626.615 603.681 602.343 557.994 581.053 542.961C559.763 527.927 544.646 515.624 511.22 482.198C477.795 448.772 432.275 436.678 395.868 442.725C359.461 448.772 341.278 448.814 295.633 442.725C249.987 436.636 250.113 424.543 207.449 439.702C164.785 454.861 83.1103 482.282 83.1103 482.282C83.1103 482.282 -5.07325 518.731 -20.1484 558.204C-35.2236 597.676 -26.1953 670.575 -38.331 700.977C-50.4668 731.379 -83.8926 719.16 -68.7334 789.161C-53.5742 859.161 -29.2607 898.34 -29.2607 931.934C-29.2607 965.528 25.3291 1026.08 73.998 1026.08C122.667 1026.08 155.967 1035.19 201.528 1071.6C247.09 1108.01 283.497 1120.18 341.194 1089.82C398.891 1059.46 468.724 1062.49 499.085 1059.46C529.445 1056.44 568.918 1007.86 581.053 965.318C593.189 922.78 641.816 919.798 656.975 877.134C661.846 863.487 667.305 852.401 671.546 841.777C674.399 829.456 676.614 816.995 678.181 804.446C676.181 789.258 671.032 774.655 663.064 761.572V761.572ZM374.578 758.506C353.33 773.707 377.643 816.203 347.283 849.629C316.923 883.055 316.923 846.564 307.81 846.564C294.047 847.999 280.139 847.047 266.7 843.75C253.179 841.651 239.741 837.913 231.888 831.405C213.664 816.203 201.528 807.091 177.299 804.068C153.069 801.044 174.275 776.731 189.476 752.459C204.678 728.188 207.701 728.146 210.724 700.851C213.748 673.556 256.244 670.491 256.244 670.491C256.244 670.491 274.469 661.378 310.834 670.491C347.199 679.603 338.171 697.786 368.531 704.084C398.891 710.383 395.868 743.347 374.578 758.506V758.506Z" fill="black"/>
<path d="M281.523 1108.81C252.465 1108.81 227.689 1094.86 200.226 1072.9C152.817 1035.11 119.307 1027.85 73.9979 1027.85C22.8095 1027.85 -31.3604 965.193 -31.3604 931.599C-31.3604 914.299 -38.0791 895.024 -46.6455 870.627C-56.4354 844.079 -64.4869 816.923 -70.7491 789.33C-81.2051 741.291 -69.0274 730.877 -56.1358 719.875C-49.2162 714.766 -43.7575 707.932 -40.3047 700.055C-34.6778 686.029 -33.712 662.262 -32.6622 637.066C-31.4444 608.218 -30.2266 578.277 -22.0802 557.281C-6.75303 517.431 78.701 481.695 82.3123 480.184C83.2782 479.848 164.869 452.637 206.903 437.646C236.298 427.064 246.208 429.541 263.76 434.076C274.331 436.939 285.075 439.113 295.926 440.585C341.446 446.632 358.915 446.632 395.49 440.585C436.306 433.782 481.238 448.984 512.732 480.646C545.108 513.022 560.351 525.493 582.313 541.156C604.275 556.819 628.714 603.137 628.714 646.137C628.714 687.583 634.467 705.724 664.912 760.523C672.962 773.818 678.194 788.626 680.281 804.027C680.302 804.18 680.302 804.336 680.281 804.489C678.729 817.113 676.501 829.645 673.604 842.03C671.882 846.229 670.119 850.429 668.229 854.88C665.164 861.976 661.972 869.283 658.991 877.598C651.306 899.098 635.391 910.771 619.98 922.025C604.569 933.279 589.116 944.617 583.153 965.529C571.269 1007.1 532.09 1057.91 499.169 1061.19C493.332 1061.78 486.067 1062.11 477.71 1062.53C442.101 1064.29 388.309 1066.98 342.034 1091.3C319.232 1103.43 299.538 1108.76 281.523 1108.81ZM240.665 434.454C229.538 434.982 218.585 437.425 208.289 441.677C166.297 456.71 84.5799 483.921 83.7821 484.215C82.9842 484.509 -3.4776 520.706 -18.1749 558.877C-26.0694 579.369 -27.2872 608.848 -28.463 637.402C-29.5128 662.85 -30.5206 686.911 -36.3995 701.608C-40.0772 710.135 -45.9444 717.538 -53.4063 723.066C-66.0039 733.69 -76.586 742.845 -66.6758 788.448C-60.4393 815.869 -52.43 842.857 -42.6983 869.241C-34.006 894.016 -27.1612 913.585 -27.1612 931.599C-27.1612 963.597 26.4208 1023.65 73.9979 1023.65C120.189 1023.65 154.497 1030.95 202.83 1069.63C245.956 1104.15 282.279 1118.13 340.228 1087.64C387.301 1062.87 441.639 1060.18 477.627 1058.25C486.025 1057.83 493.122 1057.49 498.875 1056.9C526.799 1054.13 566.482 1008.24 579.038 964.311C585.42 941.972 601.713 930.088 617.46 918.582C632.368 907.664 647.779 896.41 655.001 876.128C658.025 867.729 661.216 860.255 664.324 853.158C666.171 848.959 667.977 844.76 669.573 840.56C672.378 828.49 674.55 816.282 676.082 803.985C673.986 789.24 668.93 775.07 661.216 762.329V762.329C630.352 706.773 624.515 688.255 624.515 645.927C624.515 604.9 601 559.507 579.835 544.39C557.706 528.601 542.336 516.045 509.751 483.459C479.18 452.889 435.676 437.982 396.372 444.574C359.922 450.621 341.068 450.621 295.591 444.574C284.57 443.085 273.657 440.883 262.921 437.982C255.692 435.823 248.207 434.637 240.665 434.454V434.454ZM326.455 865.798H325.153C318.854 865.126 315.411 859.331 312.555 854.628C310.876 851.73 309.112 848.707 307.6 848.707C293.668 850.177 279.587 849.211 265.986 845.851C249.441 843.248 237.389 838.965 230.335 833.254C212.698 818.557 200.646 809.402 176.753 806.421C170.412 805.623 166.507 803.397 164.785 799.66C161.048 791.262 169.698 778.37 179.776 763.253C182.338 759.432 184.941 755.526 187.377 751.579C189.812 747.632 192.248 743.978 194.179 740.997C203.628 726.468 205.895 723.024 208.331 700.853C211.396 673.264 250.743 669.064 255.446 668.645C258.385 667.343 276.82 660.246 311.128 668.645C323.864 671.118 335.39 677.821 343.84 687.667C350.043 695.411 358.932 700.537 368.741 702.028C381.339 704.59 389.737 711.98 392.214 723.024C395.028 736.168 388.015 751.579 375.628 760.565C366.767 766.906 366.557 778.538 366.305 793.277C366.011 810.83 365.633 832.624 348.627 851.352C339.682 861.095 332.544 865.798 326.455 865.798V865.798ZM307.6 844.508C311.8 844.508 313.983 848.371 316.419 852.486C318.854 856.601 321.458 861.137 325.699 861.598C329.94 862.06 337.205 857.399 345.729 848.203C361.686 830.65 362.022 810.41 362.526 792.899C362.82 777.572 363.03 764.345 373.57 756.828C384.866 748.766 390.997 735.118 388.519 723.57C386.546 714.416 379.365 708.159 368.321 705.934C357.664 704.272 348 698.722 341.194 690.354C333.318 681.074 322.498 674.775 310.54 672.508C275.434 663.731 257.504 672.256 257.336 672.508C257.088 672.636 256.816 672.707 256.538 672.718C256.118 672.718 215.721 675.993 212.95 701.23C210.346 724.41 207.785 728.357 198.127 743.223C196.195 746.204 193.928 749.647 191.366 753.763C188.804 757.878 186.285 761.699 183.681 765.562C175.283 778.454 166.255 791.766 169.026 797.896C170.076 800.164 173.015 801.634 177.719 802.096C202.914 805.203 215.218 814.693 233.442 829.852C239.909 835.269 251.289 839.259 267.036 841.778C280.295 845.04 294.018 845.992 307.6 844.592V844.508Z" fill="black"/>
<path d="M213.874 817.505C202.965 810.041 190.363 805.422 177.215 804.067C170.328 803.228 167.179 800.582 166.465 796.761C148.94 807.175 130.743 817.939 111.875 829.053C62.8885 857.489 15.5828 888.727 -29.8066 922.611C-29.4255 925.592 -29.2291 928.593 -29.2188 931.598C-29.2188 944.909 -20.4844 962.588 -6.9629 979.007C1.85546 972.288 11.5556 965.149 22.4316 957.507C58.6289 931.892 136.188 873.396 213.874 817.505Z" fill="white"/>
<path d="M-7.00217 981.106C-7.30757 981.106 -7.60919 981.039 -7.88519 980.908C-8.16119 980.777 -8.40462 980.586 -8.59783 980.35C-23.0431 962.839 -31.3576 945.035 -31.3576 931.597C-31.3747 928.676 -31.571 925.759 -31.9455 922.863C-31.9838 922.496 -31.9266 922.125 -31.7794 921.787C-31.6323 921.448 -31.4002 921.153 -31.1056 920.931C14.3465 887.015 61.7075 855.736 110.744 827.247C129.724 816.119 147.865 805.369 165.334 794.955C165.629 794.789 165.961 794.702 166.299 794.702C166.638 794.702 166.97 794.789 167.265 794.955C167.575 795.09 167.847 795.298 168.059 795.561C168.271 795.825 168.417 796.135 168.483 796.466C168.861 798.482 170.205 801.211 177.469 802.135C190.918 803.518 203.807 808.238 214.968 815.867C215.254 816.054 215.489 816.309 215.652 816.61C215.814 816.91 215.899 817.247 215.899 817.588C215.899 817.93 215.814 818.266 215.652 818.567C215.489 818.868 215.254 819.123 214.968 819.31C173.27 849.25 132.454 879.359 96.4665 905.94C66.3161 928.196 40.281 947.428 23.4002 959.354C13.7 966.199 4.16776 973.211 -5.99434 980.812C-6.30137 980.99 -6.64733 981.091 -7.00217 981.106V981.106ZM-27.5783 923.577C-27.2769 926.24 -27.1226 928.917 -27.1164 931.597C-27.1164 943.523 -19.4738 960.068 -6.58223 976.109C2.86601 968.928 11.9363 962.293 21.1326 955.785C37.9295 943.901 64.0066 924.668 94.157 902.455C129.43 876.377 169.323 846.941 210.181 817.588C200.157 811.264 188.801 807.354 177.007 806.167C174.702 806.147 172.436 805.563 170.408 804.465C168.38 803.367 166.652 801.788 165.376 799.868C148.579 809.904 131.11 820.192 112.927 830.858C64.3723 859.075 17.4612 890.032 -27.5783 923.577V923.577Z" fill="black"/>
<path d="M69.0029 685.02C170.204 607.167 232.478 556.566 333.553 513.776C380.669 493.83 432.865 474.724 477.923 457.633C461.86 449.004 444.249 443.638 426.104 441.844C413.507 446.043 400.573 450.704 388.017 455.365C283.037 494.292 193.384 529.313 57.161 649.999C5.21674 695.98 -38.2031 736.881 -72.0908 769.887C-71.3482 776.277 -70.283 782.626 -68.8994 788.909C-67.7656 794.032 -66.5898 798.945 -65.372 803.774C-35.9775 771.44 4.67087 734.529 69.0029 685.02Z" fill="white"/>
<path d="M-65.3738 805.874H-65.8777C-66.2497 805.787 -66.591 805.6 -66.8647 805.334C-67.1385 805.067 -67.3345 804.731 -67.4314 804.362C-68.6492 799.533 -69.825 794.578 -70.9168 789.413C-72.3542 783.082 -73.4337 776.675 -74.1501 770.222C-74.1888 769.9 -74.152 769.572 -74.0427 769.266C-73.9334 768.96 -73.7546 768.684 -73.5203 768.459C-32.8299 728.818 10.674 688.674 55.7736 648.529C195.943 524.358 288.872 489.925 387.302 453.476C399.521 448.94 412.497 444.405 425.389 439.954C425.677 439.873 425.982 439.873 426.27 439.954C444.706 441.793 462.599 447.244 478.929 455.995C479.286 456.185 479.581 456.474 479.777 456.827C479.974 457.181 480.065 457.583 480.038 457.987C480.012 458.391 479.869 458.778 479.627 459.103C479.386 459.427 479.056 459.675 478.677 459.816L452.012 469.894C412.875 484.592 372.226 499.793 334.433 516.086C240.371 555.852 180.7 601.876 90.3751 671.457L70.2189 686.994C9.79215 733.437 -32.7459 770.978 -63.7361 805.454C-63.9651 805.633 -64.2289 805.764 -64.5108 805.836C-64.7927 805.908 -65.0866 805.921 -65.3738 805.874ZM-69.573 770.684C-68.9431 776.143 -67.9353 781.98 -66.5496 788.447C-65.7097 792.226 -64.8699 795.879 -63.988 799.449C-33.0818 765.855 8.95232 728.692 67.8673 683.383L69.1271 685.02L67.8673 683.383L88.0236 667.803C178.601 597.97 238.439 551.821 333.006 511.845C371.135 495.72 411.657 480.476 450.836 465.653L473.092 457.255C458.528 450.075 442.801 445.553 426.648 443.901C413.757 448.31 401.117 452.804 389.065 457.255C291.014 493.578 198.421 527.844 58.839 651.468C13.9494 691.235 -29.2605 731.296 -69.573 770.684Z" fill="black"/>
<path d="M343.043 689.429C349.474 697.214 358.549 702.356 368.532 703.874C372.106 704.562 375.55 705.809 378.736 707.569L384.321 704.504C439.667 674.521 537.425 622.619 609.525 579.661C603.992 568.331 596.708 557.944 587.941 548.881C552.71 566.224 515.253 586.296 485.522 603.471C446.428 625.643 400.194 654.197 343.043 689.429Z" fill="white"/>
<path d="M378.734 709.672C378.382 709.674 378.035 709.587 377.726 709.42C374.726 707.754 371.48 706.578 368.11 705.935C357.702 704.303 348.241 698.945 341.487 690.86C341.279 690.636 341.123 690.37 341.029 690.08C340.934 689.79 340.904 689.483 340.941 689.18C340.971 688.87 341.074 688.571 341.242 688.308C341.41 688.045 341.638 687.826 341.907 687.668L349.927 682.713C404.265 649.119 447.181 622.79 484.302 601.458C516.3 583.192 553.673 563.329 586.847 546.869C587.235 546.67 587.675 546.6 588.105 546.668C588.535 546.736 588.933 546.938 589.241 547.246C598.175 556.474 605.588 567.062 611.202 578.615C611.446 579.085 611.499 579.631 611.351 580.139C611.202 580.648 610.863 581.079 610.404 581.344C550.062 617.331 472.208 659.281 415.351 689.936L385.117 706.229L380.917 708.58L379.7 709.294C379.411 709.493 379.081 709.622 378.734 709.672V709.672ZM346.148 689.852C352.096 696.319 360.088 700.545 368.782 701.82C372.183 702.48 375.476 703.61 378.566 705.179H378.776L382.975 702.785L413.167 686.45C469.479 656.132 546.366 614.686 606.331 579.034C601.231 569.016 594.758 559.758 587.099 551.53C554.345 567.697 517.644 587.223 486.318 605.238C449.071 626.528 406.197 652.941 351.943 686.408L346.148 689.852Z" fill="black"/>
<path d="M213.033 1012.01C279.213 949.739 395.993 930.255 540.026 856.307C597.429 826.912 642.445 804.152 674.401 786.81C671.457 778.067 667.674 769.629 663.105 761.614C661.929 759.515 660.88 757.415 659.788 755.567C568.119 788.405 405.189 862.605 298.655 918.623C236.087 951.545 177.76 994.209 131.232 1032.51C145.563 1036.64 159.266 1042.7 171.965 1050.52C184.87 1038.43 198.56 1025.59 213.033 1012.01Z" fill="white"/>
<path d="M171.964 1052.58C171.583 1052.56 171.209 1052.46 170.872 1052.28C158.33 1044.56 144.797 1038.57 130.644 1034.48C130.277 1034.37 129.946 1034.17 129.687 1033.89C129.428 1033.6 129.251 1033.26 129.174 1032.88C129.098 1032.51 129.125 1032.12 129.25 1031.76C129.376 1031.39 129.596 1031.07 129.888 1030.83C181.891 987.233 238.167 949.008 297.857 916.733C408.59 858.447 570.806 785.255 658.989 753.551C659.462 753.388 659.977 753.395 660.445 753.571C660.912 753.748 661.304 754.082 661.551 754.517L664.868 760.564C669.495 768.704 673.334 777.267 676.332 786.137C676.473 786.609 676.45 787.115 676.267 787.572C676.084 788.03 675.752 788.412 675.324 788.657C651.515 801.59 620.986 817.169 582.354 836.948L540.907 857.944C481.321 888.556 426.353 909.888 377.81 928.658C308.061 955.701 252.967 977.075 214.418 1013.31C199.945 1026.98 186.256 1039.8 173.35 1051.78C173.184 1052 172.976 1052.18 172.738 1052.32C172.5 1052.46 172.237 1052.54 171.964 1052.58V1052.58ZM135.599 1031.58C148.234 1035.58 160.355 1041.05 171.712 1047.87C184.226 1036.2 197.524 1023.74 211.605 1010.5C250.742 973.632 306.171 952.174 376.34 924.963C424.757 906.193 479.641 884.945 539.06 854.416L580.506 833.21C618.299 813.894 648.281 798.525 671.839 785.801C668.968 777.771 665.413 770.002 661.215 762.579L658.779 758.128C570.05 790.084 409.514 862.605 299.662 920.428C241.434 951.963 186.477 989.196 135.599 1031.58V1031.58Z" fill="black"/>
<path d="M274.469 1041.49C273.243 1041.49 272.032 1041.21 270.922 1040.69C269.812 1040.17 268.83 1039.41 268.045 1038.47C266.625 1036.76 265.938 1034.56 266.135 1032.35C266.331 1030.14 267.395 1028.1 269.094 1026.67C281.109 1016.95 294.701 1009.36 309.281 1004.24C311.371 1003.71 313.584 1004.01 315.463 1005.07C317.341 1006.12 318.741 1007.86 319.373 1009.93C320.004 1011.99 319.818 1014.21 318.854 1016.14C317.89 1018.07 316.222 1019.55 314.194 1020.28C301.752 1024.75 290.143 1031.27 279.844 1039.56C278.333 1040.81 276.432 1041.49 274.469 1041.49Z" fill="white"/>
<path d="M418.88 963.008C418.147 961.444 417.913 959.693 418.211 957.992C418.509 956.291 419.324 954.724 420.545 953.503C421.766 952.282 423.333 951.467 425.034 951.169C426.735 950.871 428.486 951.105 430.05 951.838C443.934 958.585 456.56 967.66 467.381 978.671C468.879 980.341 469.652 982.538 469.529 984.779C469.407 987.019 468.4 989.12 466.73 990.617C465.059 992.115 462.862 992.888 460.622 992.766C458.381 992.644 456.281 991.637 454.783 989.967C445.473 980.571 434.64 972.819 422.743 967.039C421.033 966.175 419.67 964.753 418.88 963.008V963.008Z" fill="white"/>
<path d="M500.429 934.246C499.2 934.204 497.995 933.893 496.899 933.334C495.803 932.775 494.844 931.983 494.088 931.012C492.729 929.256 492.121 927.034 492.396 924.83C492.671 922.627 493.808 920.622 495.558 919.255C507.873 909.942 521.712 902.838 536.458 898.259C537.554 897.88 538.715 897.732 539.871 897.825C541.026 897.917 542.15 898.247 543.171 898.795C544.192 899.343 545.089 900.096 545.805 901.007C546.521 901.918 547.041 902.968 547.332 904.09C547.623 905.212 547.678 906.382 547.494 907.526C547.311 908.671 546.892 909.764 546.265 910.739C545.638 911.714 544.817 912.548 543.851 913.19C542.886 913.832 541.799 914.267 540.657 914.468C528.065 918.495 516.239 924.613 505.678 932.566C504.167 933.701 502.318 934.292 500.429 934.246Z" fill="white"/>
<path d="M40.658 997.904C40.5224 996.191 40.9157 994.477 41.7847 992.994C42.6538 991.512 43.9568 990.331 45.5179 989.613C47.079 988.894 48.8231 988.671 50.5146 988.975C52.2062 989.279 53.7639 990.094 54.9774 991.311C65.686 1002.44 74.3815 1015.34 80.6766 1029.44C81.4256 1031.49 81.3479 1033.75 80.4599 1035.74C79.5718 1037.73 77.9431 1039.3 75.9186 1040.12C73.8941 1040.93 71.6326 1040.92 69.6129 1040.1C67.5932 1039.27 65.9738 1037.69 65.0975 1035.7C59.6069 1023.67 52.1568 1012.65 43.0516 1003.07C41.6768 1001.68 40.8303 999.852 40.658 997.904Z" fill="white"/>
<path d="M601.923 652.896C601.822 651.669 601.991 650.436 602.419 649.282C602.847 648.128 603.524 647.082 604.401 646.219C605.181 645.438 606.107 644.819 607.126 644.396C608.146 643.973 609.239 643.756 610.343 643.756C611.446 643.756 612.539 643.973 613.559 644.396C614.578 644.819 615.504 645.438 616.284 646.219C626.978 657.358 635.672 670.256 641.984 684.348C642.436 685.378 642.676 686.489 642.69 687.614C642.705 688.739 642.493 689.855 642.067 690.897C641.642 691.939 641.011 692.884 640.214 693.677C639.416 694.47 638.466 695.095 637.422 695.515C636.378 695.934 635.261 696.139 634.136 696.118C633.011 696.097 631.902 695.85 630.874 695.392C629.846 694.934 628.921 694.275 628.153 693.452C627.385 692.63 626.791 691.661 626.404 690.605C620.935 678.561 613.467 667.529 604.317 657.977C602.959 656.608 602.114 654.814 601.923 652.896V652.896Z" fill="white"/>
<path d="M81.5994 748.556C81.4638 746.843 81.8571 745.129 82.7261 743.647C83.5952 742.164 84.8982 740.984 86.4593 740.265C88.0204 739.546 89.7645 739.324 91.456 739.627C93.1476 739.931 94.7053 740.746 95.9188 741.963C106.609 753.121 115.302 766.032 121.618 780.134C122.367 782.183 122.289 784.444 121.401 786.436C120.513 788.429 118.885 789.998 116.86 790.811C114.835 791.624 112.574 791.618 110.554 790.793C108.535 789.968 106.915 788.389 106.039 786.391C100.57 774.347 93.1015 763.315 83.951 753.763C82.5827 752.356 81.7507 750.513 81.5994 748.556Z" fill="white"/>
<path d="M-13.7219 616.154C-13.8575 614.441 -13.4642 612.727 -12.5952 611.244C-11.7261 609.762 -10.4231 608.581 -8.86196 607.862C-7.30086 607.144 -5.55683 606.921 -3.86527 607.225C-2.17371 607.529 -0.616019 608.344 0.597487 609.561C11.2767 620.727 19.9683 633.637 26.2967 647.732C27.0457 649.781 26.968 652.041 26.08 654.034C25.1919 656.027 23.5633 657.596 21.5387 658.409C19.5142 659.222 17.2527 659.215 15.233 658.39C13.2133 657.565 11.5939 655.987 10.7175 653.989C5.24825 641.945 -2.21978 630.913 -11.3703 621.361C-12.7386 619.953 -13.5706 618.111 -13.7219 616.154Z" fill="white"/>
<path d="M155.464 952.888C153.747 952.821 152.092 952.23 150.722 951.193C149.351 950.157 148.332 948.725 147.801 947.091C147.27 945.457 147.253 943.699 147.752 942.055C148.251 940.411 149.243 938.959 150.593 937.896C162.909 928.584 176.748 921.479 191.494 916.9C192.589 916.522 193.751 916.374 194.906 916.466C196.061 916.558 197.185 916.889 198.206 917.437C199.228 917.984 200.125 918.738 200.841 919.649C201.557 920.56 202.077 921.61 202.367 922.732C202.658 923.854 202.713 925.024 202.53 926.168C202.346 927.312 201.928 928.406 201.301 929.381C200.674 930.356 199.852 931.19 198.887 931.832C197.922 932.473 196.834 932.908 195.693 933.109C183.1 937.136 171.275 943.255 160.713 951.208C159.202 952.342 157.353 952.934 155.464 952.888Z" fill="white"/>
<path d="M359.124 587.011C358.665 585.872 358.46 584.647 358.526 583.421C358.591 582.194 358.924 580.998 359.502 579.914C360.546 577.951 362.325 576.481 364.451 575.828C366.576 575.174 368.874 575.391 370.84 576.429C384.368 583.906 396.512 593.649 406.743 605.236C407.504 606.082 408.085 607.074 408.451 608.152C408.817 609.229 408.96 610.37 408.871 611.505C408.782 612.639 408.464 613.744 407.936 614.752C407.407 615.76 406.679 616.65 405.796 617.368C404.913 618.085 403.893 618.616 402.798 618.928C401.704 619.24 400.557 619.326 399.428 619.181C398.3 619.036 397.212 618.663 396.232 618.085C395.251 617.507 394.399 616.735 393.726 615.818C384.903 606.032 374.498 597.799 362.946 591.462C361.178 590.486 359.822 588.906 359.124 587.011V587.011Z" fill="white"/>
<path d="M487.076 502.899C485.359 502.833 483.703 502.242 482.333 501.205C480.963 500.169 479.943 498.737 479.412 497.102C478.881 495.468 478.864 493.71 479.363 492.066C479.863 490.422 480.854 488.971 482.205 487.908C494.531 478.612 508.367 471.509 523.105 466.912C525.254 466.334 527.545 466.633 529.474 467.743C531.403 468.854 532.813 470.684 533.393 472.833C533.971 474.982 533.672 477.273 532.562 479.202C531.451 481.131 529.621 482.541 527.472 483.121C514.875 487.157 503.049 493.29 492.493 501.262C490.931 502.418 489.016 502.996 487.076 502.899Z" fill="white"/>
<path d="M97.3461 661.42C95.6291 661.354 93.9737 660.762 92.6034 659.726C91.233 658.689 90.2136 657.257 89.6826 655.623C89.1516 653.989 89.1346 652.231 89.6339 650.587C90.1333 648.943 91.1249 647.491 92.475 646.429C104.791 637.116 118.63 630.012 133.375 625.432C134.471 625.054 135.633 624.906 136.788 624.998C137.943 625.091 139.067 625.421 140.088 625.969C141.11 626.517 142.007 627.27 142.723 628.181C143.439 629.092 143.958 630.142 144.249 631.264C144.54 632.386 144.595 633.556 144.411 634.7C144.228 635.844 143.81 636.938 143.183 637.913C142.556 638.888 141.734 639.722 140.769 640.364C139.804 641.006 138.716 641.441 137.575 641.641C124.982 645.668 113.157 651.787 102.595 659.74C101.094 660.893 99.2378 661.487 97.3461 661.42V661.42Z" fill="white"/>
<path d="M233.064 898.003C232.339 896.444 232.11 894.7 232.408 893.007C232.706 891.314 233.516 889.753 234.73 888.534C235.943 887.316 237.501 886.5 239.194 886.196C240.886 885.892 242.631 886.114 244.192 886.833C258.106 893.552 270.751 902.63 281.565 913.666C283.058 915.337 283.825 917.532 283.699 919.768C283.573 922.005 282.564 924.1 280.893 925.592C279.223 927.084 277.028 927.852 274.791 927.726C272.555 927.6 270.46 926.591 268.968 924.92C259.63 915.55 248.785 907.814 236.886 902.034C235.201 901.15 233.858 899.732 233.064 898.003V898.003Z" fill="white"/>
<path d="M529.531 737.426C529.006 736.31 528.734 735.091 528.734 733.857C528.734 732.623 529.006 731.405 529.531 730.288C529.984 729.275 530.634 728.362 531.442 727.602C532.251 726.842 533.201 726.25 534.24 725.859C535.279 725.469 536.384 725.288 537.493 725.328C538.602 725.367 539.692 725.626 540.7 726.089C554.605 732.802 567.237 741.881 578.032 752.922C578.771 753.749 579.339 754.713 579.705 755.76C580.072 756.807 580.228 757.916 580.166 759.024C580.103 760.131 579.823 761.215 579.342 762.215C578.86 763.214 578.187 764.108 577.36 764.847C576.533 765.586 575.568 766.155 574.521 766.521C573.474 766.887 572.365 767.044 571.258 766.981C570.15 766.919 569.066 766.639 568.067 766.158C567.068 765.676 566.173 765.003 565.434 764.176C556.116 754.8 545.284 747.063 533.394 741.29C531.712 740.469 530.352 739.109 529.531 737.426V737.426Z" fill="white"/>
<path d="M529.699 604.857C528.339 605.927 526.682 606.55 524.954 606.642C523.227 606.734 521.513 606.29 520.047 605.371C518.581 604.452 517.434 603.103 516.765 601.507C516.095 599.912 515.934 598.149 516.304 596.459C519.732 581.389 525.742 567.026 534.067 554.005C534.668 553.037 535.459 552.201 536.394 551.548C537.328 550.896 538.385 550.44 539.501 550.209C540.617 549.978 541.769 549.977 542.885 550.205C544.002 550.434 545.06 550.887 545.996 551.538C546.932 552.188 547.725 553.022 548.328 553.989C548.931 554.956 549.331 556.036 549.504 557.162C549.677 558.289 549.618 559.439 549.332 560.542C549.046 561.645 548.538 562.678 547.84 563.579C540.806 574.772 535.697 587.064 532.723 599.944C532.327 601.888 531.256 603.628 529.699 604.857V604.857Z" fill="white"/>
<path d="M229.495 643.994C228.522 644.757 227.393 645.295 226.188 645.571C224.983 645.847 223.732 645.853 222.524 645.59C220.356 645.117 218.463 643.804 217.259 641.939C216.055 640.074 215.638 637.809 216.1 635.638C219.527 620.587 225.521 606.24 233.82 593.226C234.421 592.257 235.213 591.421 236.147 590.769C237.082 590.116 238.139 589.661 239.255 589.43C240.371 589.199 241.523 589.198 242.639 589.426C243.756 589.655 244.814 590.108 245.75 590.758C246.686 591.409 247.479 592.243 248.082 593.21C248.685 594.177 249.085 595.256 249.258 596.383C249.43 597.51 249.372 598.659 249.086 599.763C248.8 600.866 248.292 601.899 247.594 602.8C240.564 613.99 235.468 626.283 232.519 639.165C232.082 641.069 231.017 642.77 229.495 643.994V643.994Z" fill="white"/>
<path d="M-7.33972 823.007C-8.69976 824.076 -10.357 824.7 -12.0847 824.792C-13.8125 824.884 -15.5266 824.44 -16.9925 823.521C-18.4584 822.602 -19.6047 821.252 -20.2746 819.657C-20.9445 818.062 -21.1054 816.299 -20.7352 814.608C-17.3031 799.553 -11.2937 785.204 -2.97256 772.196C-1.65419 770.496 0.266661 769.366 2.39372 769.04C4.52078 768.714 6.69176 769.218 8.45867 770.446C10.2256 771.674 11.4536 773.534 11.8894 775.641C12.3253 777.748 11.9356 779.942 10.8009 781.771C3.76734 792.964 -1.34239 805.255 -4.31634 818.136C-4.72159 820.064 -5.79174 821.788 -7.33972 823.007V823.007Z" fill="white"/>
<path d="M384.782 492.067C384.057 490.508 383.828 488.764 384.126 487.07C384.424 485.377 385.234 483.816 386.448 482.598C387.661 481.38 389.219 480.564 390.911 480.259C392.604 479.955 394.348 480.178 395.91 480.897C409.81 487.638 422.451 496.714 433.283 507.73C434.025 508.557 434.596 509.522 434.965 510.57C435.334 511.618 435.492 512.729 435.432 513.838C435.372 514.947 435.093 516.034 434.613 517.036C434.132 518.038 433.459 518.935 432.632 519.677C431.805 520.418 430.84 520.99 429.792 521.358C428.744 521.727 427.633 521.886 426.524 521.825C425.415 521.765 424.328 521.487 423.326 521.006C422.324 520.526 421.427 519.853 420.685 519.026C411.363 509.645 400.532 501.895 388.645 496.098C386.936 495.234 385.573 493.812 384.782 492.067Z" fill="white"/>
<path d="M194.516 474.557C193.791 472.998 193.562 471.254 193.859 469.561C194.157 467.867 194.968 466.306 196.181 465.088C197.395 463.87 198.953 463.054 200.645 462.75C202.337 462.445 204.082 462.668 205.643 463.387C219.544 470.129 232.185 479.205 243.017 490.22C244.514 491.891 245.287 494.088 245.165 496.328C245.043 498.569 244.036 500.669 242.366 502.167C240.695 503.665 238.498 504.438 236.257 504.316C234.017 504.194 231.917 503.186 230.419 501.516C221.083 492.15 210.256 484.402 198.379 478.588C196.669 477.724 195.306 476.302 194.516 474.557Z" fill="white"/>
<path d="M570.557 881.209C570.033 880.092 569.761 878.873 569.761 877.639C569.761 876.406 570.033 875.187 570.557 874.07C571.01 873.057 571.66 872.145 572.469 871.385C573.277 870.625 574.228 870.032 575.266 869.642C576.305 869.251 577.411 869.07 578.52 869.11C579.628 869.149 580.719 869.408 581.727 869.871C595.632 876.584 608.263 885.663 619.058 896.704C619.8 897.531 620.371 898.496 620.74 899.544C621.108 900.592 621.267 901.703 621.207 902.812C621.146 903.921 620.868 905.008 620.388 906.01C619.907 907.012 619.234 907.909 618.407 908.651C617.58 909.392 616.615 909.964 615.567 910.333C614.519 910.701 613.408 910.86 612.299 910.799C611.189 910.739 610.103 910.461 609.101 909.98C608.099 909.5 607.202 908.827 606.46 908C597.15 898.604 586.317 890.852 574.42 885.072C572.738 884.251 571.378 882.891 570.557 881.209V881.209Z" fill="white"/>
<path d="M445.336 786.431C446.447 785.913 447.658 785.645 448.884 785.645C450.11 785.645 451.321 785.913 452.432 786.431C454.446 787.348 456.016 789.022 456.802 791.09C457.589 793.157 457.527 795.452 456.632 797.475C450.227 811.486 441.432 824.275 430.638 835.268C429.837 836.027 428.893 836.621 427.861 837.015C426.83 837.409 425.731 837.596 424.627 837.564C423.523 837.533 422.436 837.285 421.429 836.833C420.421 836.381 419.512 835.735 418.755 834.932C417.234 833.314 416.416 831.161 416.479 828.942C416.542 826.723 417.481 824.619 419.091 823.09C428.251 813.551 435.759 802.553 441.304 790.546C442.121 788.742 443.549 787.284 445.336 786.431V786.431Z" fill="white"/>
<path d="M97.2644 529.063C98.8071 528.302 100.546 528.032 102.247 528.291C103.948 528.55 105.529 529.325 106.774 530.512C108.02 531.698 108.872 533.239 109.214 534.925C109.556 536.611 109.372 538.361 108.686 539.939C102.231 553.932 93.4254 566.715 82.6512 577.732C81.0182 579.157 78.8977 579.895 76.733 579.793C74.5683 579.691 72.527 578.755 71.0358 577.183C69.5446 575.61 68.719 573.522 68.7316 571.355C68.7442 569.188 69.594 567.11 71.1033 565.555C80.2642 556.016 87.7716 545.017 93.3171 533.011C94.1443 531.283 95.5371 529.891 97.2644 529.063Z" fill="white"/>
<path d="M409.894 1038.18C411.449 1037.39 413.21 1037.11 414.934 1037.36C416.657 1037.62 418.257 1038.41 419.512 1039.62C420.767 1040.83 421.615 1042.4 421.938 1044.11C422.261 1045.82 422.044 1047.59 421.316 1049.18C414.861 1063.17 406.055 1075.95 395.281 1086.97C393.648 1088.4 391.528 1089.13 389.363 1089.03C387.198 1088.93 385.157 1087.99 383.666 1086.42C382.175 1084.85 381.349 1082.76 381.361 1080.59C381.374 1078.43 382.224 1076.35 383.733 1074.79C392.894 1065.25 400.402 1054.26 405.947 1042.25C406.751 1040.47 408.146 1039.03 409.894 1038.18Z" fill="white"/>
<path d="M286.479 357.062H281.02C212.76 357.102 145.595 374.231 85.6526 406.886C25.7101 439.542 -25.1029 486.686 -62.152 544.017C-99.2011 601.348 -121.307 667.043 -126.454 735.109C-131.601 803.175 -119.625 871.447 -91.6183 933.698L286.311 753.761L286.479 357.062Z" fill="white"/>
<path opacity="0.3" d="M337.162 322.331C358.578 290.585 368.782 267.741 373.653 245.233V244.477C373.947 243.05 374.241 241.622 374.493 240.278C374.745 238.934 374.871 238.179 375.039 237.129L375.669 232.93C375.669 231.838 375.963 230.788 376.089 229.696C376.215 228.604 376.383 226.841 376.551 225.497C376.719 224.153 376.761 223.229 376.845 222.096C376.929 220.962 376.845 219.24 377.139 217.896C377.433 216.553 377.139 215.461 377.349 214.243C377.559 213.025 377.349 211.43 377.349 210.044V205.845V201.645C377.349 199.966 377.349 198.202 377.349 196.48C377.349 194.759 377.349 194.213 377.349 193.079C377.349 190.139 377.349 187.158 377.349 184.093C377.349 183.547 377.349 182.875 377.349 182.119C377.349 181.783 377.349 181.363 377.349 180.985C377.349 180.607 377.349 180.145 377.349 179.683V179.264C377.349 178.76 377.349 178.214 377.349 177.71C377.349 177.206 377.349 176.87 377.349 176.45V175.862C377.349 175.19 377.349 174.476 377.349 173.763C377.349 173.049 377.349 173.007 377.349 172.629C376.299 154.908 373.863 124.632 372.351 110.606C369.496 84.0253 364.583 9.57324 350.012 -11.1709H349.676V212.059C349.394 214.008 348.42 215.79 346.932 217.08C345.443 218.369 343.54 219.078 341.571 219.078C339.602 219.078 337.699 218.369 336.211 217.08C334.722 215.79 333.748 214.008 333.467 212.059V63.2392C333.472 37.8549 329.592 12.6194 321.961 -11.5908L319.819 -2.10058C315.794 15.8177 313.752 34.1244 313.73 52.4892V212.059C313.484 214.03 312.527 215.842 311.038 217.156C309.55 218.47 307.632 219.195 305.647 219.195C303.661 219.195 301.744 218.47 300.256 217.156C298.767 215.842 297.81 214.03 297.563 212.059V59.7119C297.551 36.649 294.343 13.699 288.031 -8.48339L287.149 -11.5908L285.554 -5.37598C280.391 14.7654 277.781 35.476 277.785 56.2685V212.059C277.539 214.03 276.581 215.842 275.093 217.156C273.604 218.47 271.687 219.195 269.702 219.195C267.716 219.195 265.799 218.47 264.311 217.156C262.822 215.842 261.865 214.03 261.618 212.059V-11.5908C247.425 8.69139 242.26 83.6474 239.404 108.339C237.683 123.288 235.205 154.194 234.239 172.251C234.239 172.671 234.239 173.049 234.239 173.469C234.239 173.889 234.239 174.644 234.239 175.232V176.03C234.239 176.45 234.239 176.828 234.239 177.248C234.239 177.668 234.239 178.256 234.239 178.76V179.306C234.239 179.767 234.239 180.145 234.239 180.607C234.26 180.957 234.26 181.307 234.239 181.657V181.657V184.135C234.239 232.426 229.41 273.998 268.379 321.575C281.57 339.347 288.722 360.877 288.787 383.009C288.787 443.142 286.646 566.347 280.389 644.579C277.407 680.566 272.2 716.973 267.413 745.864C266.447 751.701 265.482 757.244 264.558 762.451V763.206C263.76 767.658 263.046 771.815 262.332 775.804C262.122 776.77 261.954 777.736 261.786 778.66L261.408 780.759C261.072 782.355 260.778 783.951 260.484 785.42C259.934 788.255 259.695 791.142 259.771 794.029C259.771 795.498 259.771 796.926 260.106 798.228C260.474 801.092 261.15 803.908 262.122 806.626C263.604 810.696 265.715 814.507 268.379 817.922V817.922C274.071 825.143 282.055 830.209 291.013 832.284C293.987 832.971 297.03 833.323 300.083 833.333H308.061C314.169 833.337 320.197 831.951 325.689 829.281C331.182 826.611 335.996 822.727 339.766 817.922C341.554 815.638 343.101 813.175 344.385 810.574C345.009 809.292 345.556 807.974 346.022 806.626C348.449 799.831 349.028 792.513 347.702 785.42C347.408 783.951 347.072 782.313 346.778 780.675L346.442 778.953L345.813 775.426C345.519 773.872 345.225 772.235 344.931 770.597C344.931 770.009 344.721 769.463 344.595 768.917C344.343 767.546 344.091 766.146 343.839 764.718V764.424C343.293 761.317 342.705 757.999 342.117 754.598C341.823 752.876 341.529 751.071 341.235 749.265C336.28 719.871 330.779 682.078 327.714 644.747C321.289 566.515 315.914 443.184 319.315 383.177C320.953 338.582 332.081 330.645 337.162 322.331Z" fill="black"/>
<path d="M307.43 374.78C309.782 330.604 320.868 322.626 325.949 314.353C365.211 256.194 366.891 228.311 366.891 175.779C366.891 165.701 363.322 120.224 361.39 102.125C358.535 75.5439 353.622 1.09178 339.05 -19.6523H338.714V204.04C338.433 205.989 337.459 207.771 335.971 209.06C334.482 210.349 332.579 211.059 330.61 211.059C328.641 211.059 326.738 210.349 325.249 209.06C323.761 207.771 322.787 205.989 322.505 204.04V55.2197C322.514 29.8488 318.634 4.62661 311 -19.5684V-19.5684L308.858 -10.0781C304.828 7.83938 302.786 26.1466 302.769 44.5117V204.04C302.488 205.989 301.514 207.771 300.025 209.06C298.537 210.349 296.634 211.059 294.665 211.059C292.696 211.059 290.793 210.349 289.304 209.06C287.816 207.771 286.841 205.989 286.56 204.04V51.7343C286.571 28.656 283.363 5.68896 277.028 -16.5029L276.188 -19.5684L274.76 -13.2276C269.6 6.91429 266.99 27.6246 266.992 48.4169V204.208C266.745 206.178 265.788 207.99 264.299 209.304C262.811 210.618 260.894 211.343 258.908 211.343C256.923 211.343 255.006 210.618 253.517 209.304C252.029 207.99 251.071 206.178 250.825 204.208V-19.5684C236.464 0.671859 231.299 75.6698 228.569 100.151C226.343 119.426 222.942 165.113 222.942 175.737C222.942 224.028 218.155 265.642 257.124 313.177C270.314 330.95 277.466 352.479 277.532 374.612C277.532 434.745 275.39 557.95 269.133 636.223C264.816 683.448 258.131 730.426 249.103 776.981C247.928 782.679 247.999 788.563 249.311 794.231C250.623 799.899 253.145 805.216 256.704 809.819V809.819C260.476 814.621 265.29 818.504 270.782 821.173C276.274 823.843 282.301 825.23 288.408 825.23H296.386C302.494 825.233 308.522 823.847 314.014 821.177C319.507 818.508 324.32 814.623 328.09 809.819C331.658 805.282 334.213 800.034 335.582 794.428C336.951 788.821 337.102 782.987 336.027 777.317C326.957 730.769 320.272 683.789 315.997 636.559C309.572 558.118 304.155 434.829 307.43 374.78Z" fill="#D9D9D9"/>
<path d="M296.387 827.162H288.409C282.163 827.162 275.994 825.783 270.343 823.122C264.692 820.462 259.698 816.587 255.719 811.773C251.739 806.959 248.872 801.325 247.322 795.274C245.772 789.224 245.577 782.906 246.752 776.771C255.768 730.287 262.439 683.378 266.741 636.224C273.04 559.714 275.139 437.979 275.139 374.78C275.007 353.146 268.024 332.109 255.193 314.69C219.667 271.27 220.045 231.881 220.465 190.183C220.465 185.48 220.465 180.735 220.465 175.906C220.465 165.324 223.909 119.258 226.134 100.11C226.554 96.2465 227.058 91.2075 227.646 85.3705C230.921 52.2387 236.38 -3.23291 248.642 -20.7856C248.899 -21.1532 249.266 -21.4289 249.69 -21.5727C250.115 -21.7164 250.574 -21.7206 251.001 -21.5845C251.428 -21.4484 251.801 -21.1792 252.064 -20.8164C252.327 -20.4535 252.467 -20.016 252.463 -19.5679V204.04C252.726 205.435 253.467 206.695 254.56 207.601C255.653 208.507 257.028 209.003 258.447 209.003C259.867 209.003 261.242 208.507 262.334 207.601C263.427 206.695 264.169 205.435 264.431 204.04V48.2495C264.434 27.2861 267.072 6.40625 272.284 -13.8989L273.837 -20.1138C273.95 -20.5613 274.211 -20.9578 274.576 -21.2396C274.942 -21.5214 275.391 -21.6721 275.853 -21.6675C276.311 -21.6633 276.757 -21.515 277.126 -21.2437C277.495 -20.9724 277.77 -20.5918 277.911 -20.1558L278.793 -17.0903C285.173 5.29461 288.41 28.4582 288.409 51.7348V204.04C288.671 205.435 289.413 206.695 290.505 207.601C291.598 208.507 292.973 209.003 294.393 209.003C295.812 209.003 297.187 208.507 298.28 207.601C299.372 206.695 300.114 205.435 300.376 204.04V44.6801C300.374 26.1036 302.431 7.58409 306.507 -10.5396L308.649 -20.0298C308.751 -20.4825 309 -20.8887 309.357 -21.185C309.714 -21.4813 310.159 -21.6509 310.623 -21.6675C311.089 -21.704 311.553 -21.5774 311.936 -21.3093C312.319 -21.0412 312.597 -20.6482 312.722 -20.1977C320.422 4.25813 324.33 29.7489 324.312 55.3881V204.04C324.55 205.461 325.284 206.75 326.384 207.681C327.483 208.611 328.877 209.121 330.317 209.121C331.757 209.121 333.151 208.611 334.25 207.681C335.349 206.75 336.083 205.461 336.322 204.04V-19.5679C336.322 -20.1247 336.543 -20.6588 336.937 -21.0525C337.33 -21.4463 337.865 -21.6675 338.421 -21.6675C338.806 -21.6691 339.188 -21.5917 339.542 -21.44C339.896 -21.2883 340.215 -21.0656 340.479 -20.7856C353.077 -2.47705 358.62 54.2123 361.811 88.1C362.315 93.517 362.777 98.2201 363.197 101.999C365.044 119.426 368.698 165.534 368.698 175.906C368.698 228.858 366.934 256.908 327.377 315.53C326.622 316.747 325.698 318.007 324.69 319.435C319.315 326.825 311.21 337.995 309.237 374.906C306.087 433.695 311.21 556.271 317.635 636.224C321.895 683.383 328.567 730.294 337.623 776.771C338.799 782.909 338.604 789.231 337.052 795.285C335.499 801.338 332.628 806.974 328.644 811.789C324.66 816.604 319.661 820.478 314.005 823.136C308.348 825.794 302.175 827.168 295.925 827.162H296.387ZM248.558 -11.0435C239.446 11.1284 234.743 58.7475 232.055 85.7905C231.467 91.6694 231.005 96.7504 230.543 100.572C228.36 119.678 224.917 165.408 224.917 175.906C224.917 180.735 224.917 185.522 224.917 190.225C224.497 232.931 224.119 270.01 258.51 312.002C272.139 330.174 279.506 352.276 279.506 374.99C279.506 438.273 277.197 560.134 271.108 636.769C266.81 684.082 260.11 731.146 251.036 777.779C249.986 783.305 250.168 788.995 251.569 794.443C252.969 799.891 255.554 804.963 259.139 809.298C262.724 813.633 267.221 817.123 272.309 819.522C277.397 821.92 282.952 823.166 288.577 823.173H296.555C302.183 823.174 307.741 821.932 312.833 819.536C317.925 817.141 322.425 813.65 326.011 809.313C329.598 804.976 332.182 799.901 333.58 794.45C334.977 788.999 335.154 783.306 334.096 777.779C325.06 731.141 318.375 684.079 314.066 636.769C307.473 556.69 302.35 433.779 305.667 374.906C307.683 336.736 316.25 324.978 321.918 317.167C322.838 315.968 323.693 314.72 324.48 313.43C363.407 255.817 365.128 228.186 365.128 176.116C365.128 165.869 361.475 120.014 359.627 102.671C359.249 98.892 358.788 94.2729 358.284 88.6879C355.638 60.5532 350.935 10.5825 341.151 -11.7993V204.04C340.92 206.587 339.745 208.955 337.856 210.679C335.968 212.404 333.504 213.36 330.947 213.36C328.39 213.36 325.925 212.404 324.037 210.679C322.149 208.955 320.974 206.587 320.743 204.04V55.2202C320.747 32.7507 317.681 10.3861 311.63 -11.2534L311.252 -9.65772C307.227 8.1744 305.199 26.3993 305.206 44.6801V204.04C304.926 206.546 303.733 208.861 301.855 210.542C299.976 212.223 297.543 213.152 295.022 213.152C292.501 213.152 290.069 212.223 288.19 210.542C286.311 208.861 285.118 206.546 284.839 204.04V51.7348C284.764 30.4647 281.941 9.29337 276.441 -11.2534C271.566 8.27676 269.098 28.33 269.092 48.4594V204.25C268.813 206.756 267.62 209.071 265.741 210.752C263.863 212.433 261.43 213.362 258.909 213.362C256.388 213.362 253.956 212.433 252.077 210.752C250.198 209.071 249.005 206.756 248.726 204.25L248.558 -11.0435Z" fill="#263238"/>
<path d="M362.483 237.215C366.683 218.402 366.893 199.674 366.893 175.906C366.893 175.36 366.893 174.688 366.893 173.975C366.893 173.261 366.893 172.421 366.893 171.497V171.245C366.893 170.321 366.893 169.313 366.893 168.264V168.012C366.893 166.878 366.893 165.702 366.683 164.442H339.01V204.251C338.728 206.2 337.754 207.982 336.266 209.271C334.777 210.56 332.874 211.27 330.905 211.27C328.936 211.27 327.033 210.56 325.545 209.271C324.056 207.982 323.082 206.2 322.801 204.251V164.232H303.065V204.041C302.783 205.99 301.809 207.772 300.321 209.061C298.832 210.35 296.929 211.06 294.96 211.06C292.991 211.06 291.088 210.35 289.599 209.061C288.111 207.772 287.137 205.99 286.856 204.041V164.232H267.119V204.041C266.873 206.011 265.915 207.823 264.427 209.137C262.938 210.451 261.021 211.176 259.036 211.176C257.05 211.176 255.133 210.451 253.645 209.137C252.156 207.823 251.199 206.011 250.952 204.041V164.232H223.573C223.573 165.45 223.573 166.584 223.573 167.676V168.054C223.573 169.062 223.573 170.027 223.573 170.951V171.287C223.573 172.169 223.573 172.967 223.573 173.723C223.573 174.478 223.573 175.15 223.573 175.696C223.284 196.578 224.829 217.444 228.193 238.055C249.27 247.766 272.225 252.725 295.431 252.58C318.638 252.435 341.529 247.189 362.483 237.215V237.215Z" fill="#263238"/>
<path d="M293.867 254.894C270.666 254.923 247.738 249.893 226.68 240.154C226.38 240.011 226.118 239.8 225.913 239.537C225.709 239.275 225.569 238.969 225.504 238.643C222.053 217.857 220.451 196.807 220.717 175.738C220.717 175.151 220.717 174.479 220.717 173.723L221.137 163.939C221.178 163.407 221.417 162.911 221.805 162.546C222.193 162.181 222.704 161.974 223.236 161.965H250.615C250.891 161.962 251.164 162.016 251.417 162.124C251.67 162.233 251.898 162.393 252.085 162.595C252.477 162.985 252.703 163.512 252.715 164.065V203.873C252.977 205.268 253.719 206.528 254.812 207.434C255.904 208.34 257.279 208.836 258.699 208.836C260.118 208.836 261.493 208.34 262.586 207.434C263.679 206.528 264.42 205.268 264.683 203.873V164.233C264.683 163.676 264.904 163.142 265.298 162.748C265.691 162.354 266.225 162.133 266.782 162.133H286.561C287.117 162.133 287.651 162.354 288.045 162.748C288.439 163.142 288.66 163.676 288.66 164.233V204.041C288.923 205.436 289.664 206.696 290.757 207.602C291.85 208.508 293.224 209.004 294.644 209.004C296.064 209.004 297.439 208.508 298.531 207.602C299.624 206.696 300.365 205.436 300.628 204.041V164.233C300.628 163.676 300.849 163.142 301.243 162.748C301.637 162.354 302.171 162.133 302.728 162.133H322.464C323.021 162.133 323.555 162.354 323.949 162.748C324.342 163.142 324.563 163.676 324.563 164.233V204.041C324.802 205.461 325.536 206.751 326.635 207.681C327.735 208.612 329.128 209.122 330.568 209.122C332.008 209.122 333.402 208.612 334.501 207.681C335.601 206.751 336.335 205.461 336.573 204.041V164.233C336.573 163.676 336.794 163.142 337.188 162.748C337.582 162.354 338.116 162.133 338.673 162.133H366.346C366.878 162.142 367.389 162.349 367.777 162.714C368.165 163.079 368.404 163.575 368.445 164.107L368.907 173.723C368.907 174.647 368.907 175.36 368.907 175.906C368.907 199.17 368.571 218.486 364.456 237.635C364.388 237.954 364.246 238.254 364.042 238.509C363.838 238.764 363.577 238.968 363.28 239.105C341.597 249.443 317.889 254.836 293.867 254.894V254.894ZM229.283 236.837C249.956 246.156 272.403 250.884 295.079 250.696C317.754 250.507 340.12 245.407 360.635 235.745C364.081 215.995 365.488 195.944 364.834 175.906C364.834 175.36 364.834 174.731 364.834 174.017L364.498 166.332H340.898V204.125C340.667 206.672 339.492 209.04 337.604 210.764C335.716 212.488 333.251 213.444 330.694 213.444C328.137 213.444 325.673 212.488 323.785 210.764C321.897 209.04 320.722 206.672 320.49 204.125V166.332H304.953V204.125C304.674 206.631 303.481 208.945 301.602 210.626C299.724 212.307 297.291 213.237 294.77 213.237C292.249 213.237 289.816 212.307 287.938 210.626C286.059 208.945 284.866 206.631 284.587 204.125V166.332H269.008V204.125C268.729 206.631 267.536 208.945 265.657 210.626C263.778 212.307 261.346 213.237 258.825 213.237C256.304 213.237 253.871 212.307 251.992 210.626C250.114 208.945 248.921 206.631 248.642 204.125V166.332H225.378L225.042 173.765C225.042 174.689 225.042 175.36 225.042 175.906C224.708 196.301 226.126 216.686 229.283 236.837V236.837Z" fill="#263238"/>
<path opacity="0.3" d="M464.062 714.205C463.725 709.593 462.588 705.074 460.703 700.852L457.512 693.587C455.044 687.996 451.34 683.039 446.677 679.089C442.014 675.139 436.515 672.3 430.595 670.785C429.167 670.449 427.739 670.155 426.395 669.945C422.129 669.322 417.79 669.393 413.546 670.155C412.128 670.41 410.726 670.747 409.347 671.163C405.195 672.37 401.267 674.242 397.715 676.706H397.463L393.768 679.268L392.214 680.318L389.526 682.165L385.327 685.105L383.941 686.028L380.372 688.464H380.12L367.271 696.862C342.453 713.239 310.077 733.564 277.155 751.452C236.633 773.498 181.749 801.507 131.946 825.148L73.1575 852.065L31.2073 871.55L-284.154 1015.58C-284.154 1015.58 -339.374 1041.62 -291.041 1062.57C-291.041 1062.57 -242.54 1080.21 -124.542 1037.8C-57.3542 1013.61 38.5979 972.205 48.886 965.99C52.8168 964.103 56.162 961.185 58.5654 957.546C60.9687 953.908 62.3401 949.686 62.5335 945.33C63.6253 936.722 59.3001 901.154 81.5559 881.544L83.4035 879.948C143.242 854.207 233.61 816.96 296.094 795.124C330.191 783.282 365.591 773.33 393.936 766.024L410.27 761.824H410.984L423.204 758.885L426.312 758.129L428.117 757.709L432.946 756.575C442.317 754.399 450.601 748.946 456.307 741.2C462.012 733.455 464.762 723.926 464.062 714.331V714.205Z" fill="black"/>
<path d="M391.247 668.686C352.313 695.788 312.033 720.904 270.562 743.936C229.997 765.982 175.113 793.991 125.311 817.674L-290.412 1007.52C-290.412 1007.52 -345.631 1033.56 -297.298 1054.51C-297.298 1054.51 -248.797 1072.15 -130.757 1029.73C-63.57 1005.55 32.3401 964.143 42.6702 957.97C46.5959 956.065 49.9353 953.137 52.337 949.493C54.7387 945.85 56.1138 941.627 56.3176 937.268C57.3674 928.66 53.0422 893.092 75.3401 873.482L77.1877 871.928C136.985 846.145 227.352 808.94 289.836 787.062C334.777 771.899 380.452 759.005 426.688 748.429C432.314 747.137 437.596 744.65 442.175 741.136C446.755 737.622 450.524 733.163 453.227 728.063V728.063C456.087 722.668 457.685 716.694 457.903 710.592C458.122 704.49 456.954 698.418 454.487 692.832L451.254 685.567C448.838 680.148 445.257 675.328 440.768 671.45C436.278 667.571 430.989 664.729 425.276 663.125C419.564 661.522 413.569 661.196 407.716 662.172C401.864 663.148 396.298 665.4 391.415 668.77L391.247 668.686Z" fill="#D9D9D9"/>
<path d="M-265.425 1060.35C-276.479 1060.81 -287.536 1059.51 -298.179 1056.48C-312.162 1050.44 -319.175 1043.25 -319.175 1035.07C-319.427 1019.11 -292.384 1006.18 -291.25 1005.67L124.724 815.783C172.175 793.233 227.773 765.015 269.807 742.129C311.141 719.154 351.281 694.095 390.073 667.047C395.214 663.49 401.078 661.113 407.245 660.085C413.412 659.057 419.731 659.404 425.748 661.1C431.766 662.797 437.334 665.803 442.055 669.901C446.777 674 450.535 679.09 453.061 684.81L456.294 692.074C458.823 697.798 460.053 704.01 459.898 710.266C459.743 716.521 458.205 722.665 455.395 728.256C452.586 733.847 448.574 738.747 443.647 742.605C438.721 746.463 433.001 749.182 426.9 750.569C380.732 761.127 335.127 774.007 290.257 789.16C230.418 809.946 141.437 846.479 78.0288 873.816L76.4751 875.16C58.7964 890.739 58.5445 916.69 58.3765 930.632C58.4253 932.958 58.3412 935.285 58.1246 937.602C57.8955 942.284 56.415 946.818 53.8373 950.732C51.2597 954.647 47.6793 957.798 43.4693 959.858C33.0132 966.115 -62.8129 1007.56 -130.294 1031.79C-195.004 1055.01 -238.844 1060.35 -265.425 1060.35ZM392.34 670.406C353.359 697.563 313.022 722.721 271.487 745.782C229.495 768.668 173.687 796.971 126.152 819.562L-289.822 1009.41C-296.961 1012.81 -315.48 1023.98 -315.312 1035.02C-315.312 1041.36 -308.971 1047.29 -296.751 1052.62C-296.373 1052.62 -247.41 1069.42 -131.764 1027.76C-64.5765 1003.57 30.9136 962.378 41.2857 956.373C44.9335 954.635 48.036 951.932 50.2568 948.557C52.4775 945.181 53.7317 941.262 53.8833 937.224C54.064 935.06 54.1341 932.887 54.0933 930.716C54.0933 917.152 54.5133 888.933 73.6197 871.927L75.5093 870.289C75.6618 870.167 75.8316 870.067 76.0132 869.995C139.505 842.616 228.739 805.957 288.829 785.087C333.848 769.887 379.608 756.979 425.934 746.412C431.413 745.137 436.544 742.669 440.96 739.184C445.377 735.699 448.97 731.283 451.484 726.25C453.999 721.217 455.372 715.692 455.507 710.068C455.641 704.444 454.534 698.859 452.263 693.712L449.03 686.405C446.757 681.257 443.375 676.675 439.126 672.985C434.878 669.296 429.866 666.59 424.451 665.062C419.035 663.533 413.349 663.22 407.798 664.144C402.247 665.068 396.969 667.206 392.34 670.406V670.406Z" fill="#263238"/>
<path d="M66.3965 844.591L24.8662 863.529C40.2305 889.456 49.7732 918.414 52.8329 948.395C54.6959 944.955 55.8255 941.166 56.1504 937.268C57.2002 928.659 52.875 893.092 75.1728 873.481L77.0205 871.928L78.2382 871.382L66.3965 844.591Z" fill="#263238"/>
<path d="M52.834 950.492H52.2042C51.7676 950.389 51.3747 950.15 51.0809 949.811C50.787 949.472 50.6071 949.05 50.5665 948.603C47.5548 918.93 38.1114 890.27 22.8936 864.618C22.7452 864.36 22.6501 864.075 22.614 863.779C22.578 863.483 22.6016 863.183 22.6837 862.897C22.7747 862.62 22.9226 862.364 23.1178 862.147C23.313 861.93 23.5513 861.757 23.8175 861.637L65.3477 842.657C65.6034 842.539 65.8802 842.474 66.1617 842.465C66.4431 842.456 66.7234 842.504 66.9859 842.606C67.2483 842.708 67.4877 842.862 67.6896 843.058C67.8915 843.254 68.0519 843.489 68.1612 843.748L80.0029 870.539C80.1141 870.793 80.1741 871.066 80.1794 871.343C80.1847 871.62 80.1351 871.895 80.0336 872.152C79.9322 872.41 79.7808 872.645 79.5881 872.844C79.3955 873.042 79.1654 873.201 78.9112 873.311L77.9454 873.731L76.3916 875.074C58.7129 890.654 58.461 916.605 58.293 930.546C58.3418 932.873 58.2577 935.2 58.0411 937.517C57.6987 941.698 56.4827 945.761 54.4717 949.443C54.3095 949.742 54.0742 949.995 53.7879 950.178C53.5015 950.362 53.1734 950.47 52.834 950.492V950.492ZM27.6387 864.492C40.8629 887.411 49.6659 912.609 53.5899 938.777C53.5899 938.245 53.6739 937.657 53.8418 937.013C54.0225 934.848 54.0926 932.676 54.0518 930.504C54.0518 916.941 54.4717 888.722 73.5781 871.715L75.2998 870.203L65.1377 847.15L27.6387 864.492Z" fill="#263238"/>
</g>
<defs>
<filter id="filter0_d_47_9" x="-425.177" y="-129.684" width="1402.03" height="1586.77" filterUnits="userSpaceOnUse" color-interpolation-filters="sRGB">
<feFlood flood-opacity="0" result="BackgroundImageFix"/>
<feColorMatrix in="SourceAlpha" type="matrix" values="0 0 0 0 0 0 0 0 0 0 0 0 0 0 0 0 0 0 127 0" result="hardAlpha"/>
<feOffset dx="2"/>
<feGaussianBlur stdDeviation="54"/>
<feComposite in2="hardAlpha" operator="out"/>
<feColorMatrix type="matrix" values="0 0 0 0 0 0 0 0 0 0 0 0 0 0 0 0 0 0 0.5 0"/>
<feBlend mode="normal" in2="BackgroundImageFix" result="effect1_dropShadow_47_9"/>
<feBlend mode="normal" in="SourceGraphic" in2="effect1_dropShadow_47_9" result="shape"/>
</filter>
</defs>
</svg>
